PathFileType	4	(X/Y/Z)	 New Session 101.trc
DataRate	CameraRate	NumFrames	NumMarkers	Units	OrigDataRate	OrigDataStartFrame	OrigNumFrames
100	100	27	14	m	100	1	337
Frame#	Time	C7			T8			IJ			PX			AA			AC			AI			TS			SC			GH			LE			ME			US			RS			
		X1	Y1	Z1	X2	Y2	Z2	X3	Y3	Z3	X4	Y4	Z4	X5	Y5	Z5	X6	Y6	Z6	X7	Y7	Z7	X8	Y8	Z8	X9	Y9	Z9	X10	Y10	Z10	X11	Y11	Z11	X12	Y12	Z12	X13	Y13	Z13	X14	Y14	Z14	
1	0.0100	0.021309	0.108259	0.156766	0.030344	-0.106262	0.236551	0.000000	0.000000	0.000000	0.001625	-0.142797	-0.063572	0.220914	0.011633	0.140468	0.168780	0.053660	0.071042	0.107846	0.031955	0.200534	0.112640	-0.086064	0.233131	0.025167	0.008343	0.003532	0.231787	0.025953	0.101202	0.321142	-0.247543	0.030072	0.238725	-0.285894	-0.000160	0.408886	-0.496382	-0.060541	0.442910	-0.449885	-0.116038	
2	0.0200	0.021313	0.108280	0.156645	0.030383	-0.106301	0.236462	0.000004	0.000019	-0.000117	0.001661	-0.142800	-0.063714	0.220958	0.011641	0.140329	0.168802	0.053668	0.070903	0.107868	0.031974	0.200407	0.112642	-0.086074	0.233000	0.025192	0.008337	0.003436	0.231821	0.025947	0.101070	0.321054	-0.247508	0.029847	0.238687	-0.285817	-0.000508	0.408873	-0.496416	-0.060664	0.442935	-0.449903	-0.116129	
3	0.0300	0.021324	0.108291	0.156519	0.030403	-0.106339	0.236361	0.000012	0.000025	-0.000240	0.001697	-0.142806	-0.063852	0.220994	0.011646	0.140198	0.168828	0.053670	0.070764	0.107890	0.031985	0.200275	0.112648	-0.086081	0.232874	0.025220	0.008331	0.003335	0.231856	0.025942	0.100937	0.321035	-0.247494	0.029673	0.238650	-0.285755	-0.000870	0.408875	-0.496446	-0.060772	0.442957	-0.449918	-0.116218	
4	0.0400	0.021343	0.108291	0.156386	0.030423	-0.106359	0.236236	0.000025	0.000019	-0.000367	0.001733	-0.142816	-0.063984	0.221023	0.011646	0.140077	0.168857	0.053668	0.070624	0.107916	0.031988	0.200135	0.112658	-0.086085	0.232752	0.025250	0.008324	0.003228	0.231891	0.025937	0.100805	0.321070	-0.247496	0.029540	0.238614	-0.285708	-0.001245	0.408891	-0.496472	-0.060865	0.442980	-0.449931	-0.116305	
5	0.0500	0.021370	0.108280	0.156248	0.030454	-0.106360	0.236086	0.000041	0.000001	-0.000501	0.001767	-0.142827	-0.064111	0.221045	0.011639	0.139963	0.168889	0.053661	0.070485	0.107952	0.031983	0.199989	0.112671	-0.086085	0.232634	0.025283	0.008316	0.003116	0.231927	0.025932	0.100672	0.321129	-0.247506	0.029433	0.238580	-0.285676	-0.001630	0.408920	-0.496494	-0.060944	0.443010	-0.449947	-0.116391	
6	0.0600	0.021404	0.108261	0.156103	0.030494	-0.106351	0.235924	0.000060	-0.000028	-0.000640	0.001798	-0.142840	-0.064233	0.221068	0.011626	0.139852	0.168922	0.053652	0.070345	0.107995	0.031976	0.199845	0.112688	-0.086082	0.232519	0.025318	0.008308	0.002999	0.231962	0.025926	0.100539	0.321188	-0.247518	0.029339	0.238548	-0.285658	-0.002019	0.408961	-0.496513	-0.061010	0.443045	-0.449969	-0.116479	
7	0.0700	0.021444	0.108236	0.155951	0.030528	-0.106343	0.235772	0.000084	-0.000067	-0.000785	0.001826	-0.142852	-0.064353	0.221093	0.011613	0.139738	0.168957	0.053640	0.070206	0.108041	0.031971	0.199702	0.112709	-0.086076	0.232404	0.025353	0.008300	0.002876	0.231996	0.025917	0.100403	0.321234	-0.247526	0.029245	0.238518	-0.285653	-0.002405	0.409009	-0.496530	-0.061067	0.443081	-0.449994	-0.116570	
8	0.0800	0.021486	0.108210	0.155793	0.030547	-0.106339	0.235639	0.000110	-0.000113	-0.000935	0.001850	-0.142864	-0.064471	0.221121	0.011607	0.139621	0.168992	0.053629	0.070066	0.108080	0.031972	0.199555	0.112733	-0.086068	0.232288	0.025386	0.008292	0.002748	0.232025	0.025904	0.100259	0.321266	-0.247529	0.029147	0.238493	-0.285660	-0.002779	0.409063	-0.496544	-0.061116	0.443113	-0.450019	-0.116665	
9	0.0900	0.021527	0.108187	0.155630	0.030558	-0.106341	0.235523	0.000140	-0.000164	-0.001090	0.001871	-0.142878	-0.064589	0.221152	0.011612	0.139500	0.169025	0.053617	0.069926	0.108110	0.031980	0.199403	0.112762	-0.086059	0.232169	0.025416	0.008283	0.002615	0.232044	0.025884	0.100100	0.321289	-0.247528	0.029047	0.238473	-0.285678	-0.003134	0.409117	-0.496556	-0.061160	0.443140	-0.450039	-0.116761	
10	0.1000	0.021566	0.108171	0.155462	0.030572	-0.106344	0.235411	0.000172	-0.000217	-0.001249	0.001889	-0.142893	-0.064707	0.221184	0.011622	0.139375	0.169057	0.053607	0.069785	0.108135	0.031988	0.199247	0.112795	-0.086050	0.232043	0.025441	0.008276	0.002478	0.232050	0.025854	0.099923	0.321310	-0.247530	0.028949	0.238461	-0.285704	-0.003463	0.409172	-0.496565	-0.061203	0.443164	-0.450052	-0.116856	
11	0.1100	0.021604	0.108159	0.155292	0.030588	-0.106344	0.235293	0.000205	-0.000267	-0.001411	0.001903	-0.142910	-0.064824	0.221212	0.011630	0.139246	0.169087	0.053598	0.069642	0.108166	0.031987	0.199088	0.112832	-0.086041	0.231911	0.025460	0.008268	0.002335	0.232039	0.025812	0.099725	0.321340	-0.247541	0.028856	0.238457	-0.285735	-0.003762	0.409226	-0.496572	-0.061247	0.443191	-0.450062	-0.116950	
12	0.1200	0.021639	0.108153	0.155122	0.030600	-0.106341	0.235168	0.000237	-0.000312	-0.001573	0.001915	-0.142930	-0.064941	0.221234	0.011627	0.139114	0.169115	0.053589	0.069496	0.108203	0.031978	0.198930	0.112874	-0.086032	0.231771	0.025473	0.008261	0.002187	0.232014	0.025761	0.099509	0.321386	-0.247562	0.028770	0.238463	-0.285768	-0.004029	0.409281	-0.496576	-0.061296	0.443227	-0.450071	-0.117044	
13	0.1300	0.021673	0.108153	0.154952	0.030611	-0.106335	0.235047	0.000265	-0.000350	-0.001734	0.001923	-0.142953	-0.065057	0.221249	0.011618	0.138978	0.169140	0.053582	0.069346	0.108242	0.031974	0.198780	0.112919	-0.086023	0.231623	0.025480	0.008254	0.002035	0.231982	0.025709	0.099288	0.321442	-0.247586	0.028685	0.238477	-0.285800	-0.004265	0.409338	-0.496579	-0.061352	0.443275	-0.450079	-0.117140	
14	0.1400	0.021705	0.108162	0.154784	0.030629	-0.106326	0.234935	0.000288	-0.000380	-0.001892	0.001928	-0.142979	-0.065175	0.221259	0.011610	0.138840	0.169163	0.053577	0.069191	0.108275	0.031982	0.198636	0.112966	-0.086014	0.231469	0.025481	0.008247	0.001879	0.231956	0.025666	0.099077	0.321498	-0.247607	0.028589	0.238501	-0.285830	-0.004470	0.409398	-0.496579	-0.061416	0.443333	-0.450087	-0.117235	
15	0.1500	0.021733	0.108181	0.154620	0.030657	-0.106310	0.234826	0.000305	-0.000403	-0.002047	0.001930	-0.143008	-0.065295	0.221264	0.011612	0.138699	0.169183	0.053573	0.069032	0.108303	0.032004	0.198491	0.113013	-0.086003	0.231313	0.025479	0.008240	0.001719	0.231945	0.025641	0.098888	0.321545	-0.247618	0.028479	0.238531	-0.285855	-0.004647	0.409463	-0.496576	-0.061488	0.443394	-0.450096	-0.117331	
16	0.1600	0.021759	0.108211	0.154461	0.030690	-0.106288	0.234712	0.000317	-0.000419	-0.002199	0.001931	-0.143039	-0.065418	0.221265	0.011625	0.138551	0.169200	0.053572	0.068869	0.108324	0.032032	0.198338	0.113058	-0.085988	0.231156	0.025475	0.008232	0.001557	0.231955	0.025639	0.098730	0.321583	-0.247615	0.028355	0.238567	-0.285875	-0.004798	0.409532	-0.496571	-0.061566	0.443447	-0.450107	-0.117429	
17	0.1700	0.021784	0.108246	0.154305	0.030723	-0.106263	0.234587	0.000324	-0.000432	-0.002348	0.001933	-0.143072	-0.065543	0.221267	0.011648	0.138396	0.169216	0.053573	0.068704	0.108338	0.032059	0.198174	0.113100	-0.085970	0.231001	0.025471	0.008223	0.001392	0.231987	0.025658	0.098601	0.321618	-0.247605	0.028223	0.238607	-0.285893	-0.004922	0.409604	-0.496564	-0.061647	0.443497	-0.450120	-0.117527	
18	0.1800	0.021812	0.108281	0.154152	0.030750	-0.106238	0.234447	0.000329	-0.000444	-0.002497	0.001938	-0.143105	-0.065672	0.221273	0.011673	0.138232	0.169231	0.053576	0.068539	0.108349	0.032080	0.198005	0.113136	-0.085947	0.230852	0.025471	0.008212	0.001227	0.232036	0.025693	0.098493	0.321655	-0.247592	0.028091	0.238647	-0.285908	-0.005018	0.409676	-0.496556	-0.061730	0.443549	-0.450135	-0.117620	
19	0.1900	0.021843	0.108308	0.153996	0.030769	-0.106218	0.234302	0.000331	-0.000456	-0.002644	0.001947	-0.143137	-0.065803	0.221288	0.011697	0.138061	0.169247	0.053579	0.068375	0.108365	0.032091	0.197835	0.113165	-0.085919	0.230711	0.025474	0.008200	0.001060	0.232094	0.025736	0.098394	0.321698	-0.247582	0.027964	0.238685	-0.285926	-0.005082	0.409745	-0.496548	-0.061813	0.443613	-0.450149	-0.117707	
20	0.2000	0.021879	0.108321	0.153836	0.030779	-0.106200	0.234162	0.000332	-0.000469	-0.002790	0.001961	-0.143167	-0.065936	0.221309	0.011717	0.137883	0.169265	0.053581	0.068213	0.108388	0.032098	0.197671	0.113186	-0.085888	0.230578	0.025483	0.008186	0.000894	0.232150	0.025778	0.098290	0.321746	-0.247578	0.027841	0.238720	-0.285948	-0.005112	0.409808	-0.496542	-0.061898	0.443688	-0.450160	-0.117786	
21	0.2100	0.021918	0.108321	0.153668	0.030786	-0.106181	0.234025	0.000334	-0.000483	-0.002936	0.001980	-0.143194	-0.066073	0.221336	0.011734	0.137701	0.169284	0.053582	0.068053	0.108412	0.032110	0.197519	0.113197	-0.085853	0.230453	0.025496	0.008173	0.000728	0.232198	0.025811	0.098172	0.321795	-0.247577	0.027717	0.238748	-0.285975	-0.005108	0.409860	-0.496537	-0.061990	0.443767	-0.450167	-0.117861	
22	0.2200	0.021957	0.108310	0.153496	0.030801	-0.106159	0.233879	0.000336	-0.000496	-0.003080	0.002001	-0.143214	-0.066212	0.221369	0.011753	0.137519	0.169304	0.053582	0.067896	0.108428	0.032130	0.197382	0.113200	-0.085815	0.230334	0.025513	0.008160	0.000564	0.232234	0.025834	0.098037	0.321841	-0.247572	0.027586	0.238769	-0.286010	-0.005067	0.409899	-0.496534	-0.062093	0.443840	-0.450169	-0.117935	
23	0.2300	0.021993	0.108294	0.153320	0.030823	-0.106143	0.233723	0.000340	-0.000509	-0.003221	0.002025	-0.143228	-0.066355	0.221404	0.011772	0.137342	0.169324	0.053584	0.067740	0.108434	0.032151	0.197252	0.113195	-0.085777	0.230220	0.025536	0.008148	0.000402	0.232256	0.025846	0.097887	0.321880	-0.247560	0.027446	0.238781	-0.286050	-0.004993	0.409921	-0.496532	-0.062214	0.443903	-0.450169	-0.118009	
24	0.2400	0.022023	0.108280	0.153147	0.030848	-0.106132	0.233564	0.000347	-0.000519	-0.003359	0.002050	-0.143236	-0.066498	0.221440	0.011790	0.137172	0.169343	0.053587	0.067586	0.108435	0.032166	0.197119	0.113186	-0.085740	0.230106	0.025566	0.008137	0.000243	0.232266	0.025852	0.097726	0.321911	-0.247540	0.027296	0.238785	-0.286095	-0.004891	0.409926	-0.496531	-0.062356	0.443958	-0.450167	-0.118084	
25	0.2500	0.022045	0.108272	0.152979	0.030871	-0.106122	0.233409	0.000359	-0.000527	-0.003494	0.002078	-0.143239	-0.066643	0.221474	0.011808	0.137012	0.169359	0.053594	0.067433	0.108440	0.032175	0.196978	0.113175	-0.085706	0.229991	0.025602	0.008126	0.000089	0.232267	0.025853	0.097560	0.321938	-0.247515	0.027146	0.238780	-0.286140	-0.004768	0.409914	-0.496530	-0.062519	0.444014	-0.450161	-0.118158	
26	0.2600	0.022060	0.108274	0.152820	0.030889	-0.106106	0.233264	0.000377	-0.000530	-0.003627	0.002109	-0.143240	-0.066786	0.221504	0.011826	0.136860	0.169372	0.053603	0.067280	0.108451	0.032182	0.196831	0.113166	-0.085675	0.229871	0.025644	0.008115	-0.000061	0.232262	0.025854	0.097395	0.321965	-0.247490	0.027008	0.238769	-0.286182	-0.004633	0.409892	-0.496528	-0.062699	0.444077	-0.450151	-0.118230	
27	0.2700	0.022068	0.108284	0.152668	0.030906	-0.106086	0.233126	0.000402	-0.000529	-0.003758	0.002146	-0.143242	-0.066927	0.221528	0.011841	0.136717	0.169383	0.053614	0.067126	0.108466	0.032189	0.196685	0.113162	-0.085648	0.229746	0.025689	0.008104	-0.000205	0.232255	0.025859	0.097232	0.321994	-0.247470	0.026892	0.238754	-0.286216	-0.004498	0.409867	-0.496525	-0.062884	0.444144	-0.450140	-0.118302	
